<?xml version="1.0" standalone="no"?>
<!DOCTYPE svg PUBLIC "-//W3C//DTD SVG 20010904//EN"
 "http://www.w3.org/TR/2001/REC-SVG-20010904/DTD/svg10.dtd">
<svg version="1.0" xmlns="http://www.w3.org/2000/svg"
 width="900.000000pt" height="600.000000pt" viewBox="0 0 900.000000 600.000000"
 preserveAspectRatio="xMidYMid meet">
<metadata>
Created by potrace 1.16, written by Peter Selinger 2001-2019
</metadata>
<g transform="translate(0.000000,600.000000) scale(0.100000,-0.100000)"
fill="#000000" stroke="none">
<path d="M0 3000 l0 -3000 4500 0 4500 0 0 3000 0 3000 -4500 0 -4500 0 0
-3000z m6620 540 c0 -20 -7 -20 -995 -20 -988 0 -995 0 -995 20 0 20 7 20 995
20 988 0 995 0 995 -20z m-3630 -260 l0 -140 50 0 50 0 0 140 0 140 60 0 60 0
0 -350 0 -350 -60 0 -60 0 0 145 0 145 -50 0 -50 0 0 -145 0 -145 -70 0 -70 0
0 350 0 350 70 0 70 0 0 -140z m528 78 c6 -35 28 -178 49 -318 l38 -255 3 318
2 317 94 0 c105 0 138 -9 179 -48 l27 -26 0 37 0 37 65 0 65 0 0 -350 0 -351
-107 3 -106 3 -30 113 c-19 74 -34 112 -43 112 -11 0 -14 -24 -14 -115 l0
-116 -127 3 c-105 2 -128 6 -130 18 -1 8 -4 32 -8 53 l-6 38 -47 -3 -47 -3 -7
-48 c-4 -27 -9 -51 -11 -53 -3 -3 -31 -4 -64 -2 l-59 3 53 345 c28 190 52 346
52 348 1 1 39 2 85 2 l84 0 10 -62z m862 5 c0 -47 -15 -100 -80 -281 -44 -123
-80 -225 -80 -227 0 -2 35 -5 78 -7 l77 -3 3 -62 3 -63 -156 0 -155 0 0 67 c0
57 11 96 75 280 41 118 75 216 75 219 0 2 -34 4 -75 4 l-75 0 0 65 0 65 155 0
155 0 0 -57z m537 25 c23 -23 28 -38 31 -93 l4 -66 -48 3 -49 3 -5 44 c-6 48
-28 65 -67 50 -21 -8 -23 -14 -23 -93 l0 -84 86 -48 c47 -27 90 -57 96 -67 5
-11 8 -71 6 -138 -3 -114 -4 -120 -30 -146 -24 -23 -38 -28 -95 -31 -110 -6
-144 18 -158 111 l-6 47 50 0 c50 0 51 -1 51 -30 0 -36 38 -57 71 -39 18 9 19
19 17 97 l-3 86 -74 42 c-110 63 -106 56 -106 192 0 170 19 194 152 189 64 -2
76 -6 100 -29z m343 -7 c0 -40 0 -40 -42 -43 l-43 -3 -3 -307 -2 -308 -45 0
-45 0 0 310 0 310 -45 0 -45 0 0 40 0 40 135 0 135 0 0 -39z m150 -261 l0
-300 26 -10 c37 -14 52 -12 74 10 19 19 20 33 20 310 l0 290 46 0 45 0 -3
-320 -3 -320 -28 -27 c-24 -25 -36 -28 -106 -31 -86 -4 -130 10 -153 51 -10
16 -14 104 -16 335 l-4 312 51 0 51 0 0 -300z m526 285 c61 -25 65 -48 62
-360 -4 -342 9 -318 -173 -323 l-125 -4 0 351 0 351 100 0 c66 0 113 -5 136
-15z m244 -335 l0 -350 -50 0 -50 0 0 350 0 350 50 0 50 0 0 -350z m366 317
l24 -28 0 -289 0 -289 -24 -28 c-23 -26 -30 -28 -111 -32 -99 -4 -139 9 -160
50 -21 39 -21 562 -1 598 23 42 53 52 154 49 89 -3 95 -4 118 -31z m74 -797
c0 -20 -7 -20 -995 -20 -988 0 -995 0 -995 20 0 20 7 20 995 20 988 0 995 0
995 -20z"/>
<path d="M5800 3070 l0 -273 46 6 c26 2 50 11 55 18 15 24 11 472 -4 493 -7 9
-32 20 -55 23 l-42 6 0 -273z"/>
<path d="M6380 3333 c-8 -3 -18 -11 -22 -17 -10 -15 -10 -478 0 -494 12 -18
75 -26 101 -13 21 11 21 17 21 262 l0 249 -26 10 c-28 11 -51 12 -74 3z"/>
</g>
</svg>
